<svg xmlns="http://www.w3.org/2000/svg" xmlns:xlink="http://www.w3.org/1999/xlink" version="1.1" x="0px" y="0px" viewBox="0 0 48 60" enable-background="new 0 0 48 48" xml:space="preserve"><g><path d="M44,9.1c2.2,0,4-1.8,4-4V4c0-2.2-1.8-4-4-4H4C1.8,0,0,1.8,0,4v1.1c0,2.2,1.8,4,4,4h7.4v4.5H4c-2.2,0-4,1.8-4,4V44   c0,2.2,1.8,4,4,4h40c2.2,0,4-1.8,4-4V17.6c0-2.2-1.8-4-4-4h-7.4V9.1H44z M4,7.1c-1.1,0-2-0.9-2-2V4c0-1.1,0.9-2,2-2h40   c1.1,0,2,0.9,2,2v1.1c0,1.1-0.9,2-2,2h-7.4v-2c0-0.6-0.4-1-1-1c-0.6,0-1,0.4-1,1v2H13.4v-2c0-0.6-0.4-1-1-1c-0.6,0-1,0.4-1,1v2H4z    M44,15.6c1.1,0,2,0.9,2,2V44c0,1.1-0.9,2-2,2H4c-1.1,0-2-0.9-2-2V17.6c0-1.1,0.9-2,2-2h7.4v2.5c0,0.6,0.4,1,1,1c0.6,0,1-0.4,1-1   v-2.5h21.3v2.5c0,0.6,0.4,1,1,1c0.6,0,1-0.4,1-1v-2.5H44z M34.6,13.6H13.4V9.1h21.3V13.6z"/></g><text x="0" y="63" fill="#000000" font-size="5px" font-weight="bold" font-family="'Helvetica Neue', Helvetica, Arial-Unicode, Arial, Sans-serif">Created by Vectors Market</text><text x="0" y="68" fill="#000000" font-size="5px" font-weight="bold" font-family="'Helvetica Neue', Helvetica, Arial-Unicode, Arial, Sans-serif">from the Noun Project</text></svg>